<svg xmlns="http://www.w3.org/2000/svg" viewBox="0 0 379.47 311.03"><defs><style>.cls-1{fill:#ebebeb;}.cls-2{fill:#ddd;}.cls-3{fill:#8b9295;}.cls-4{font-size:30.44px;}.cls-4,.cls-5{fill:#c4c4c4;}.cls-14,.cls-15,.cls-4,.cls-5{font-family:Kanit-Bold, Kanit Bold;font-weight:700;}.cls-5{font-size:26.2px;}.cls-6{fill:#263238;}.cls-7{fill:#455a64;}.cls-8{fill:#37474f;}.cls-9{fill:#fafafa;}.cls-10{fill:#e0e0e0;}.cls-11{fill:#ff725e;}.cls-12{fill:#b5b8b9;}.cls-13{fill:#ffb497;}.cls-14{font-size:16.89px;}.cls-14,.cls-15{fill:#fff;}.cls-15{font-size:16.1px;}.cls-16{fill:#1d272b;}.cls-17{fill:#344a51;}.cls-18{fill:#6f4c47;}.cls-19{fill:#a56963;}.cls-20{fill:#8e514f;}.cls-21{fill:#bc4b42;}.cls-22{fill:#e2544d;}.cls-23{fill:#a84338;}</style></defs><g id="Layer_2" data-name="Layer 2"><g id="OBJECTS"><path class="cls-1" d="M86,107.55a103.12,103.12,0,0,0,72.91-46.23c18.74-29,54.66-60.56,121.53-55.8,120.68,8.59,140.89,207.21,5.71,279.14S-4.72,268,.11,179.68C2.86,129.41,47.8,112.66,86,107.55Z"/><path class="cls-2" d="M2.67,203.75C11.44,237,41.2,268.09,81.88,288.17l256.47-45.33h0a174.21,174.21,0,0,0,38.32-81.52Z"/><path class="cls-3" d="M82.76,288.61l255.59-45.77,1-1.19L81.25,287.86Z"/><text class="cls-4" transform="translate(89.84 47.89)">&lt;/&gt;</text><text class="cls-5" transform="translate(313.01 80.45) rotate(-0.69)">C++</text><path class="cls-6" d="M53.83,201.64l-3.24-1a3,3,0,0,1-2.09-2.86V73a3,3,0,0,1,2.88-3l145-6.09a29.11,29.11,0,0,1,7,.55l5.28,1.85L76.22,193.43Z"/><path class="cls-7" d="M63.42,206.7v3.19A3,3,0,0,0,65,212.52l23.87,13a3,3,0,0,0,1.84.33L203.5,210.62a2,2,0,0,0,1.73-2v-2.91L173.4,193.12Z"/><polygon class="cls-6" points="109.21 208.56 104.77 206.75 104.77 190.39 110.83 190.39 109.21 208.56"/><polygon class="cls-8" points="164.96 179.68 109.21 185.54 109.21 208.56 164.96 201.7 164.96 179.68"/><path class="cls-7" d="M207.72,183.27,53.83,201.64V75.47a3,3,0,0,1,2.87-3L207.23,66a3,3,0,0,1,3.13,3V180.29A3,3,0,0,1,207.72,183.27Z"/><path class="cls-9" d="M63.81,182.24l139-14.57a2.32,2.32,0,0,0,2.08-2.31V76a2.32,2.32,0,0,0-2.43-2.32l-139,6.89a2.32,2.32,0,0,0-2.2,2.32v97A2.31,2.31,0,0,0,63.81,182.24Z"/><path class="cls-10" d="M161.37,75.75,63.45,80.6a2.32,2.32,0,0,0-2.2,2.32v97a2.31,2.31,0,0,0,2.56,2.3L161.37,172Z"/><polygon class="cls-11" points="73 106.49 72.95 103.49 110.62 100.89 110.68 103.88 73 106.49"/><polygon class="cls-7" points="78.38 111.78 78.33 108.79 116 106.18 116.06 109.18 78.38 111.78"/><polygon class="cls-7" points="78.82 117.56 78.76 114.56 110.84 112.44 110.9 115.43 78.82 117.56"/><polygon class="cls-11" points="73.33 123.45 73.27 120.45 110.95 117.85 111 120.84 73.33 123.45"/><polygon class="cls-7" points="79.86 128.6 79.81 125.6 117.48 123 117.54 125.99 79.86 128.6"/><polygon class="cls-7" points="86.79 133.87 86.73 130.87 115.09 128.91 115.15 131.9 86.79 133.87"/><polygon class="cls-7" points="87.28 139.38 87.22 136.39 111.27 134.75 111.33 137.75 87.28 139.38"/><polygon class="cls-7" points="87.39 145.2 87.33 142.2 125.01 139.59 125.07 142.59 87.39 145.2"/><polygon class="cls-7" points="80.29 150.77 80.23 147.77 117.91 145.16 117.96 148.16 80.29 150.77"/><polygon class="cls-11" points="73.97 157.38 73.92 154.38 111.58 151.22 111.64 154.22 73.97 157.38"/><path class="cls-12" d="M66.86,80.71l-.21-.27-3.2.16a2.32,2.32,0,0,0-2.2,2.32v97a2.31,2.31,0,0,0,2.56,2.3l3-.32Z"/><path class="cls-11" d="M204.89,80.88v-5a2.32,2.32,0,0,0-2.43-2.32l-139,6.89a2.33,2.33,0,0,0-2.2,2.32v4.74Z"/><polygon class="cls-13" points="168.1 157.87 200.54 154.95 200.54 90.24 168.1 91.97 168.1 157.87"/><path class="cls-6" d="M63.42,206.7v3.19A3,3,0,0,0,65,212.52l23.87,13a3,3,0,0,0,1.84.33L203.5,210.62a2,2,0,0,0,1.73-2v-2.91L90.08,221.35Z"/><path class="cls-7" d="M87.57,237.56v3.7A3.26,3.26,0,0,0,89.06,244l21.54,13.84a5,5,0,0,0,3.55.72l132.74-22.93a3,3,0,0,0,2.49-3v-2.43l-32.94-12.45Z"/><path class="cls-6" d="M114.15,258.56l132.74-22.93a3,3,0,0,0,2.49-3v-2.43L114.25,252.89a5,5,0,0,1-3.49-.7L87.57,237.56v3.94a2.81,2.81,0,0,0,1.29,2.37l21.74,14A5,5,0,0,0,114.15,258.56Z"/><rect class="cls-11" x="0.11" y="213.54" width="58.67" height="32.27" rx="4"/><text class="cls-14" transform="translate(13.57 234.58)">PHP</text><rect class="cls-11" x="304.7" y="124.28" width="62.59" height="28.61" rx="4"/><text class="cls-15" transform="translate(316.06 144.41)">HTML</text><rect class="cls-11" x="191.72" width="49.95" height="28.61" rx="4"/><text class="cls-15" transform="translate(208.67 19.77)">JS</text><path class="cls-6" d="M222.19,121.19s-5.43.58-6.34-5.82-3.4-8.23-6.12-11.85,0-8.16,0-8.16-6.8-.91-6.12-7.94S208.82,80,208.82,80s-3.85-10.2,6.35-10.43c0,0-2.49-7.48,2.27-12s7.25-5,7.25-5-3.86-5.44,0-8.38,3.17,5.66,9.74,2.49,19-8.84,21.76.91c0,0,11.33-3.86,14.28,6.34,0,0,15.64-5.89,19,6.35,0,0,13.82,5,10.65,19.72,0,0,6.8,4.08,6.57,14.27s-7.93,13.83-7.93,13.83,4.76,12.22-4.76,16.54c0,0-.41,11.75-11.42,7.35s-50.45-11.65-50.45-11.65Z"/><path class="cls-16" d="M250.86,75.27a10.11,10.11,0,0,0-.35-8.93c-2.52-4.86-8.67-3.13-10.67,0s-4.35,7.5-4.35,7.5v.39l4.09,2.6Z"/><path class="cls-17" d="M259.92,58.3a13.42,13.42,0,0,0,.08-5.78,18.48,18.48,0,0,1-.83,5.6,43.55,43.55,0,0,1-1.89,5,23,23,0,0,0,0-5.62,12.52,12.52,0,0,0-3.43-6.79,10.85,10.85,0,0,0-7.06-2.83,16.79,16.79,0,0,0-7.5,1.21,12.77,12.77,0,0,0-5.62,5.11c-1.38,2.1-2.39,4.42-4.09,6a6.16,6.16,0,0,1-3,1.57,16.07,16.07,0,0,0-3.66,1.08,8.14,8.14,0,0,0-3,2.47,5.28,5.28,0,0,0-1,3.59,5.38,5.38,0,0,1,1.43-3.26,7.51,7.51,0,0,1,3-1.89,14.82,14.82,0,0,1,3.45-1,7.44,7.44,0,0,0,1.87-.66A8.06,8.06,0,0,0,230.23,61c1.92-1.84,2.9-4.2,4.24-6.21A11.81,11.81,0,0,1,239.66,50a15.73,15.73,0,0,1,7-1.13,9.93,9.93,0,0,1,6.43,2.55,11.52,11.52,0,0,1,3.14,6.26A23.22,23.22,0,0,1,257,63.8c-.7,1.55-1.48,3.07-2.3,4.57a25.36,25.36,0,0,0-.15-6.15,10.11,10.11,0,0,0-3.2-6.49,6.53,6.53,0,0,0-3.45-1.48,10.28,10.28,0,0,0-3.68.31A11.39,11.39,0,0,0,238,58.24a39.77,39.77,0,0,0-3.88,6,14.61,14.61,0,0,1-2,2.73,8.2,8.2,0,0,1-2.73,1.85c-2.16.86-4.42,1.44-6.68,2.26a6.43,6.43,0,0,0-3.11,2.13,6.89,6.89,0,0,0-1.1,3.27,9.51,9.51,0,0,0-4.07,3,8.82,8.82,0,0,0-1.85,5,11.13,11.13,0,0,0,1.08,5.15,8.67,8.67,0,0,0,3.47,3.79,8.82,8.82,0,0,1-3-4,11.11,11.11,0,0,1-.57-4.88,7.61,7.61,0,0,1,1.61-4.45A8.59,8.59,0,0,1,219,77.31l.32-.11,0-.32a6.44,6.44,0,0,1,1-3.09A5.29,5.29,0,0,1,223,72c2.15-.79,4.47-1.39,6.69-2.27a9.26,9.26,0,0,0,3.08-2.08A15.84,15.84,0,0,0,235,64.76a39.49,39.49,0,0,1,3.78-5.86,10.42,10.42,0,0,1,5.71-3.37c2.18-.58,4.6-.49,6.26,1a7.26,7.26,0,0,1,1.94,2.65,19.25,19.25,0,0,1,1.16,3.22,27.92,27.92,0,0,1,.78,6.2c-.44.8-.89,1.6-1.38,2.38a9.47,9.47,0,0,1-1.68,2.28,3.51,3.51,0,0,0,1.12-.91c.34-.35.65-.72,1-1.09a27.91,27.91,0,0,0,1.7-2.34,35.7,35.7,0,0,0,2.78-5.08A27.23,27.23,0,0,0,259.92,58.3Z"/><path class="cls-17" d="M279.72,91.53a7.74,7.74,0,0,1-2-2.44,12.58,12.58,0,0,1-.84-3.12c-.34-2.18-.44-4.43-.65-6.68a31.48,31.48,0,0,0-1.15-6.75,11.53,11.53,0,0,0-1.51-3.17,7.13,7.13,0,0,0-2.71-2.32l-.79-.4-.83-.3a12.39,12.39,0,0,0-1.72-.44,12.89,12.89,0,0,0-3.51,0,14.57,14.57,0,0,0-6.11,3,15.12,15.12,0,0,1,6.26-2,11.9,11.9,0,0,1,3.21,0,10.37,10.37,0,0,1,1.55.4l.76.27.71.36a7.58,7.58,0,0,1,3.74,4.91,31.49,31.49,0,0,1,1.11,6.54c.2,2.23.3,4.48.65,6.75a13.49,13.49,0,0,0,.92,3.38,8.66,8.66,0,0,0,2.23,2.77c1.74,1.55,3.89,2.5,5.27,4.07a4.2,4.2,0,0,1,1.25,2.76,9.5,9.5,0,0,1-.5,3.27,8.64,8.64,0,0,0,1-3.26,4.92,4.92,0,0,0-1-3.41C283.47,93.88,281.33,93,279.72,91.53Z"/><path class="cls-17" d="M288.85,85.82c-1.24-1.07-2.53-2.07-3.79-3.08l-.92-.77a4.32,4.32,0,0,1-.7-.82,8.84,8.84,0,0,1-.95-2.09c-.95-3-1.29-6.29-2.07-9.47a26,26,0,0,0-1.55-4.71,11.38,11.38,0,0,0-3-4.07,9.06,9.06,0,0,0-4.66-2,11.64,11.64,0,0,0-2.55-.08,9.49,9.49,0,0,0-2.47.66,12.21,12.21,0,0,0-4.05,2.88,15.61,15.61,0,0,0-2.81,4,14.42,14.42,0,0,1,7.17-6.08,10.37,10.37,0,0,1,4.56-.4,8.06,8.06,0,0,1,4.17,1.78c2.38,2,3.46,5.17,4.2,8.24s1.1,6.36,2.1,9.56a9.9,9.9,0,0,0,1.07,2.32,5.28,5.28,0,0,0,.87,1l.95.79c1.28,1,2.55,2,3.78,3.06a22.62,22.62,0,0,1,6.08,7.23,10.1,10.1,0,0,1,1,4.49,13.85,13.85,0,0,1-.85,4.6,12.16,12.16,0,0,1-2.26,4.06,8.43,8.43,0,0,1-1.74,1.47,5.59,5.59,0,0,1-2,.81l-1,.15.65.7a14.19,14.19,0,0,1,1.89,2.74,8.32,8.32,0,0,1,1,3.19,6.77,6.77,0,0,1-.05,1.68,7.25,7.25,0,0,1-.51,1.62,8.58,8.58,0,0,1-.83,1.51c-.32.48-.73.89-1.1,1.35.41-.42.86-.8,1.24-1.25a8.28,8.28,0,0,0,1-1.47,8,8,0,0,0,.67-1.66,7.92,7.92,0,0,0,.21-1.81,9.23,9.23,0,0,0-.76-3.55A9.64,9.64,0,0,0,289.4,110a8.17,8.17,0,0,0,3.58-2.4,13.05,13.05,0,0,0,2.45-4.39,14.9,14.9,0,0,0,.91-4.93,11.09,11.09,0,0,0-1.14-4.91A23.64,23.64,0,0,0,288.85,85.82Z"/><path class="cls-17" d="M298.5,90.11a14,14,0,0,0-.93-4,10.5,10.5,0,0,0-2.3-3.44,9.42,9.42,0,0,0-3.17-2.09,17.34,17.34,0,0,0,.07-1.77A12.82,12.82,0,0,0,292,76.7a11.5,11.5,0,0,0-1.5-4,12.87,12.87,0,0,0-2.75-3.25,13,13,0,0,0-3.62-2.13,14.6,14.6,0,0,1,3.28,2.5,12.32,12.32,0,0,1,2.41,3.25A11.83,11.83,0,0,1,291,76.86a13.27,13.27,0,0,1,.17,2c0,.67-.08,1.34-.1,2v.41l.37.12a8.71,8.71,0,0,1,3.17,2,11,11,0,0,1,2.26,3.08A14,14,0,0,1,298,90.17c.13.64.17,1.3.25,2s0,1.33.06,2c.08-.66.15-1.33.2-2S298.55,90.78,298.5,90.11Z"/><path class="cls-18" d="M281.84,164.85h0l-.05-.29,0-.14-5.9-31.49-3.75-2.37L244.9,146.82l3.21,22.67c0,.49.12,1,.2,1.46l0,.27h0a17,17,0,0,0,33.48-6.37Z"/><path class="cls-19" d="M276.29,117a8.76,8.76,0,0,0-1.86.2c-3.69-2.13-1.7-10.33-.28-14.8a4.57,4.57,0,0,0-1.19-4.7c-6.81-6.49-.21-13.9-3.37-20.41-3.44-7.1-18.07-4.08-18.07-4.08a77.09,77.09,0,0,0-13.76-.15,4.53,4.53,0,0,0-2.92,1.29,6.7,6.7,0,0,1-6.46,1.87A1.72,1.72,0,0,0,226.32,78c.18,7-2.77,7.7-2.77,7.7-3.66,18.71-4.55,43.65-4.55,43.65h0c-.07.77-.11,1.54-.11,2.31A26.47,26.47,0,0,0,271,138.14h0v0c.2-.79.36-1.59.49-2.4l.44-2.21A8.8,8.8,0,1,0,276.29,117Z"/><path class="cls-18" d="M139.1,238.85s3.58,5.43,6.26,3.13-7.6-11.17-7.6-11.17l-3.57.52-.75,3.87Z"/><path class="cls-19" d="M171.52,236.16a17,17,0,0,1-8.79-7.32C159.07,223,152.48,213,148.08,210.1s-16.62,6.34-15.24,8.92c1.66,3.11,11.65-4.07,11.65-4.07l5.2,5s-4.69-1.76-6.16,1.46c0,0-4.68-.58-6.15,2.79,0,0-2.58-1-4.59,1.9s-4.93,8.5-4.06,10.84,7.62,3.08,10.41,6.31,4.1-.15,2.2-3.37a13.36,13.36,0,0,0-5.21-4.78l.64-1.11S146,247,155.26,247.59s16.26.88,16.26.88Z"/><path class="cls-18" d="M144.25,229a36.38,36.38,0,0,0-3-2.31,17.89,17.89,0,0,0-3.2-1.82,3.62,3.62,0,0,0-3.26-.14,5.86,5.86,0,0,0-2.34,2.51l0,0a57.56,57.56,0,0,0-3.3,5.78,20.25,20.25,0,0,1,1.12-3.17,30.37,30.37,0,0,1,1.51-3l0,.05a6.13,6.13,0,0,1,2.65-3,4.31,4.31,0,0,1,4,.18,14.37,14.37,0,0,1,3.21,2.14A19.52,19.52,0,0,1,144.25,229Z"/><path class="cls-18" d="M137.38,224.15a4.59,4.59,0,0,1,2.54-2.7,6.93,6.93,0,0,1,1.86-.51,4.92,4.92,0,0,1,2,.22A10.54,10.54,0,0,1,147,223a14.88,14.88,0,0,1,2.61,2.59c-1-.71-2-1.4-3-2a14,14,0,0,0-3.16-1.5,4.63,4.63,0,0,0-1.63-.21,7.51,7.51,0,0,0-1.67.34A5.61,5.61,0,0,0,137.38,224.15Z"/><path class="cls-18" d="M143.53,221.36a3.31,3.31,0,0,1,2.51-2.23,6.07,6.07,0,0,1,1.75-.11,5.85,5.85,0,0,1,1.71.46,9.59,9.59,0,0,1,2.82,1.9,11.8,11.8,0,0,1,2.12,2.56c-.83-.72-1.67-1.42-2.55-2.05a13.21,13.21,0,0,0-2.73-1.59,6.47,6.47,0,0,0-1.46-.4,7,7,0,0,0-1.52,0A3.76,3.76,0,0,0,143.53,221.36Z"/><path class="cls-18" d="M135.69,232.35c1.44,1.59,2.78,3.2,4.17,4.78s2.78,3.13,4.17,4.77a20,20,0,0,1-4.86-4.17,23.92,23.92,0,0,1-1.94-2.56A16.37,16.37,0,0,1,135.69,232.35Z"/><polygon class="cls-18" points="137.16 234.18 135.42 236.17 136.38 233.71 137.16 234.18"/><path class="cls-20" d="M201,227.87a8.45,8.45,0,0,0,4.95-.13,33.36,33.36,0,0,0,6.58-3.75l-4.33-1Z"/><path class="cls-19" d="M221.56,228a24.86,24.86,0,0,0-10.38,3.08c-4.94,2.88-7.4,5.6-8.33,3.21s6.07-6.94,6.07-6.94l1.88-2.2a.45.45,0,0,0-.4-.75l-2.48.54s-9.19,5.51-12.13,4c0,0-5,3.42-7.22,2.09s7.09-8.33,11.2-10,10.29-1,21.79-3Z"/><path class="cls-18" d="M188.23,230.47a1.89,1.89,0,0,0,1.48.74,3.92,3.92,0,0,0,1.63-.4c1-.5,2.07-1.11,3.09-1.69l6.17-3.51.07,0h.07c3.2-.5,6.41-.93,9.66-1.18-3.15.82-6.32,1.47-9.51,2l.15,0c-2,1.21-4.12,2.36-6.24,3.44a33.34,33.34,0,0,1-3.28,1.46,3.84,3.84,0,0,1-1.84.22A1.91,1.91,0,0,1,188.23,230.47Z"/><path class="cls-11" d="M305.09,172.84c-6.2-18.62-22-17.75-22-17.75s-5.83-4.24-17.34-1c-10.59,3-17.89,13.31-17.89,13.31s-16.26,5.39-21,18.52-11.94,54.2-11.94,54.2l-44.17-4.3-3.58,14.32s25.31,11.94,62.31,16.48l-5.09,40.1a224.43,224.43,0,0,0,61.81-22.11,180.87,180.87,0,0,0,33.66-23.05l-15.17-29.08S311.3,191.47,305.09,172.84Z"/><path class="cls-21" d="M227.31,266.39h0Z"/><path class="cls-22" d="M242.62,270.31c1.94-4.75,3.27-55.09,3.27-55.09s-7,38.71-8.84,46.42c-1.22,5.15-5.18,5.54-7.66,5.22l-1.15,10C232.71,276.9,240,276.83,242.62,270.31Z"/><path class="cls-23" d="M247.82,167.45a67.6,67.6,0,0,1,16.67-8.88,61.73,61.73,0,0,1,9.13-2.61,43.35,43.35,0,0,1,9.43-.87c-3.11.54-6.16,1.18-9.16,2s-6,1.76-8.88,2.87-5.8,2.27-8.67,3.51S250.64,166.05,247.82,167.45Z"/><path class="cls-23" d="M247.82,196.81c-.22,4.76-.59,9.52-1,14.26s-1.08,9.48-1.77,14.21c-1.37,9.44-3.19,18.81-5.23,28.14-.54,2.32-1.09,4.64-1.67,7-.16.59-.27,1.13-.46,1.76a7.07,7.07,0,0,1-.81,1.79,7.4,7.4,0,0,1-6.65,3.48c-.68,0-1.24-.15-1.84-.23l-1.77-.27q-3.54-.54-7.06-1.2c-9.37-1.73-18.76-3.63-27.79-6.74,4.59,1.27,9.24,2.3,13.92,3.17s9.36,1.72,14.06,2.44l7.06,1.05,1.77.25c.58.08,1.2.17,1.71.2a5.94,5.94,0,0,0,3.09-.71,6,6,0,0,0,2.95-3.63c.15-.51.28-1.14.42-1.7q.84-3.46,1.6-7c2.16-9.27,3.95-18.62,5.56-28,.83-4.69,1.53-9.4,2.19-14.11S247.27,201.54,247.82,196.81Z"/><path class="cls-23" d="M265.44,247.06c1-.95,2.05-1.89,3.09-2.81s2.16-1.77,3.3-2.59,2.27-1.64,3.51-2.32l1.81-1.07,1.88-1a38.21,38.21,0,0,1,7.94-2.94,29.73,29.73,0,0,1,4.2-.72,18.73,18.73,0,0,1,4.36,0,.71.71,0,0,1,.22,1.34h0q-4.82,2.39-9.68,4.69c-1.63.75-3.24,1.52-4.89,2.24s-3.26,1.48-4.92,2.18c1.54-.93,3.1-1.81,4.66-2.7s3.13-1.76,4.69-2.63q4.73-2.58,9.49-5.06l.19,1.35a18.12,18.12,0,0,0-4,0,34.42,34.42,0,0,0-4,.67,44.48,44.48,0,0,0-7.73,2.68,62,62,0,0,0-7.28,3.88l-3.48,2.26C267.7,245.44,266.58,246.26,265.44,247.06Z"/><path class="cls-23" d="M233.65,176a11.18,11.18,0,0,1,5.78-1.75,7.67,7.67,0,0,1,3.08.62,7.35,7.35,0,0,1,2.55,1.9,11.92,11.92,0,0,1,2.48,5.62,23.48,23.48,0,0,1,.28,6,46.89,46.89,0,0,0-1-5.86,12.72,12.72,0,0,0-2.48-5.13,6.87,6.87,0,0,0-4.9-2.4A13.92,13.92,0,0,0,233.65,176Z"/><path class="cls-23" d="M175,253.44l.94.35,3.86-17-1-.1Z"/><path class="cls-6" d="M254.6,109.11a2.34,2.34,0,1,1-2.33-2.34A2.33,2.33,0,0,1,254.6,109.11Z"/><path class="cls-6" d="M231.24,104.94c0,1.41-.82,2.56-1.82,2.56s-1.81-1.15-1.81-2.56.81-2.56,1.81-2.56S231.24,103.53,231.24,104.94Z"/><path class="cls-18" d="M239,135.11a5.33,5.33,0,1,0,4.18-6A5.16,5.16,0,0,0,239,135.11Z"/><path class="cls-6" d="M249,102.66a3.89,3.89,0,0,1,1.5-3,4.67,4.67,0,0,1,3.43-.89,4.77,4.77,0,0,1,3.16,1.56,3.81,3.81,0,0,1,.89,3.23,5.55,5.55,0,0,0-1.7-2.39,5.22,5.22,0,0,0-2.51-.91,4.87,4.87,0,0,0-2.63.38A5.56,5.56,0,0,0,249,102.66Z"/><path class="cls-6" d="M226.48,98.58a3.89,3.89,0,0,1,1-2.79,3.42,3.42,0,0,1,3.06-1,4.08,4.08,0,0,1,1.53.58,3.53,3.53,0,0,1,1.12,1.19,4.1,4.1,0,0,1,.46,2.92,7.35,7.35,0,0,0-1.31-2.31,3.36,3.36,0,0,0-2-1.06,2.82,2.82,0,0,0-2.15.44A6.21,6.21,0,0,0,226.48,98.58Z"/><path class="cls-6" d="M237.29,95.42q-1.12,4.58-2.35,9.1c-.79,3-1.62,6-2.33,9-.36,1.51-.69,3-.94,4.53a19.65,19.65,0,0,0-.26,2.25,7.21,7.21,0,0,0,0,1.05,1.31,1.31,0,0,0,.32.79c.75,1,2.34,1.41,3.82,1.49a19.59,19.59,0,0,0,4.63-.35,16.4,16.4,0,0,1-4.62,1.09,9.33,9.33,0,0,1-2.46-.17,4.25,4.25,0,0,1-2.28-1.33,2.63,2.63,0,0,1-.65-1.3,6.43,6.43,0,0,1-.11-1.29,17.6,17.6,0,0,1,.17-2.43,47.54,47.54,0,0,1,.89-4.67c.74-3.07,1.64-6.08,2.67-9S236,98.28,237.29,95.42Z"/><path class="cls-6" d="M253.33,129.69a2.55,2.55,0,0,0-.54-1.35,3.12,3.12,0,0,0-1.13-.94,3.68,3.68,0,0,0-1.4-.4,2.89,2.89,0,0,0-1.42.21c.79.37,1.49.65,2.14,1-.36.45-.72.9-1.09,1.32l-.91.94-.44.48-.5.41-1,.82-1,.7a6.94,6.94,0,0,1-1.09.62,6.84,6.84,0,0,1-1.14.51,14.14,14.14,0,0,1-4.93,1,22.13,22.13,0,0,1-5.21-.48,12.31,12.31,0,0,0,10.69.86,11.75,11.75,0,0,0,4.53-3.22l.47-.51q.21-.28.39-.57l.76-1.15c.28-.52.52-1.07.76-1.62a11.37,11.37,0,0,1,1,.59C252.6,129.12,252.92,129.4,253.33,129.69Z"/><path class="cls-6" d="M250.54,92.57l12.68,1.55a.66.66,0,0,0,.69-1,9.65,9.65,0,0,0-13.76-1.7A.65.65,0,0,0,250.54,92.57Z"/><path class="cls-6" d="M226.85,87.38l9.08,2.74a.63.63,0,0,0,.8-.66c-.1-1.2-.86-3.32-4.7-4.39-3-.85-4.72.43-5.48,1.32A.62.62,0,0,0,226.85,87.38Z"/><path class="cls-18" d="M275.73,120a6.66,6.66,0,0,1,4.65,1.67,4.73,4.73,0,0,1,1.31,2.27,7.2,7.2,0,0,1-.74,5,4.54,4.54,0,0,1-1.91,1.8,6.25,6.25,0,0,1-4.93,0,7.12,7.12,0,0,0,4.59-.62,5.87,5.87,0,0,0,1.17-8A7.75,7.75,0,0,0,275.73,120Z"/></g></g></svg>