<svg xmlns="http://www.w3.org/2000/svg" viewBox="0 0 354.4 225.02"><defs><style>.cls-1{isolation:isolate;}.cls-2{fill:#4ea7cb;}.cls-3{fill:#a4dbf8;}.cls-4{fill:#323a3e;}.cls-5{fill:#dadada;}.cls-6{fill:#bebebe;}.cls-7{fill:#093b59;}.cls-8{fill:#bed7e6;}.cls-17,.cls-18,.cls-33,.cls-38,.cls-47,.cls-8{mix-blend-mode:multiply;}.cls-9{fill:#b2b2b2;}.cls-10{fill:#30373b;}.cls-11{fill:#05263b;}.cls-12{fill:#e94e1b;}.cls-13{fill:#fcbc00;}.cls-14{fill:#95c11f;}.cls-15{fill:#fff;}.cls-16{fill:#61b9d9;}.cls-17{fill:#b6cbd8;}.cls-18{fill:#79a7be;}.cls-19{fill:#c6e8fb;}.cls-20{fill:#c13a2a;}.cls-21{fill:#7c5da4;}.cls-22{fill:#608dc9;}.cls-23{fill:#e94866;}.cls-24{fill:#ec5e8c;}.cls-25,.cls-26,.cls-27,.cls-28,.cls-29,.cls-36,.cls-37,.cls-40,.cls-41,.cls-42,.cls-43,.cls-44,.cls-45,.cls-46{fill:none;stroke:#fff;}.cls-25,.cls-26,.cls-28,.cls-37,.cls-40,.cls-41,.cls-43,.cls-46{stroke-linecap:round;}.cls-25,.cls-27,.cls-29,.cls-36,.cls-37,.cls-40,.cls-42,.cls-44,.cls-45,.cls-46{stroke-miterlimit:10;}.cls-25{stroke-width:0.27px;}.cls-26,.cls-28,.cls-41,.cls-43{stroke-linejoin:round;}.cls-26,.cls-27{stroke-width:0.24px;}.cls-28,.cls-29{stroke-width:0.19px;}.cls-30{fill:silver;}.cls-31{fill:#c6c6c6;}.cls-32{fill:#a6a6a5;}.cls-33{fill:#a0abb1;}.cls-34{fill:#00acd5;}.cls-35{fill:#d6d6d6;}.cls-36{stroke-width:0.26px;}.cls-37{stroke-width:0.53px;}.cls-38{fill:#b0c9d7;}.cls-39{fill:#aeaeae;}.cls-40{stroke-width:0.2px;}.cls-41,.cls-42{stroke-width:0.17px;}.cls-43,.cls-44{stroke-width:0.14px;}.cls-45{stroke-width:0.25px;}.cls-46{stroke-width:0.5px;}.cls-47{fill:#c1d0d9;}</style></defs><g class="cls-1"><g id="Layer_2" data-name="Layer 2"><g id="Capa_1" data-name="Capa 1"><path class="cls-2" d="M122.28,203.1c0,2.54,47,4.61,105,4.61s105.05-2.07,105.05-4.61-47-4.61-105-4.61S122.28,200.55,122.28,203.1Z"/><path class="cls-2" d="M22.87,210.76c0,2.54,24.4,4.61,54.49,4.61s54.48-2.07,54.48-4.61-24.39-4.61-54.48-4.61S22.87,208.21,22.87,210.76Z"/><path class="cls-2" d="M85.51,220.41c0,2.55,18,4.61,40.27,4.61s40.27-2.06,40.27-4.61-18-4.61-40.27-4.61S85.51,217.87,85.51,220.41Z"/><path class="cls-3" d="M343.12,124H249.69c-6.23,0-11.29-5.55-11.29-12.4s5.06-12.39,11.29-12.39h93.43c6.23,0,11.28-5.55,11.28-12.4s-5-12.4-11.28-12.4H305.8c6.24,0,11.29-5.55,11.29-12.39s-5-12.4-11.29-12.4H244c-6.23,0-11.28-5.55-11.28-12.4s5.05-12.4,11.28-12.4H286.4c6.23,0,11.28-5.55,11.28-12.39S292.63,0,286.4,0H11.29C5.05,0,0,5.55,0,12.4S5.05,24.79,11.29,24.79h19.4c-6.23,0-11.28,5.56-11.28,12.4s5.05,12.4,11.28,12.4H75.17c6.24,0,11.29,5.55,11.29,12.4s-5,12.39-11.29,12.39H30.69c-6.23,0-11.28,5.55-11.28,12.4s5.05,12.4,11.28,12.4h90.75c6.24,0,11.29,5.55,11.29,12.39s-5,12.4-11.29,12.4H30.69c-6.23,0-11.28,5.55-11.28,12.4s5.05,12.4,11.28,12.4H55.77c6.23,0,11.28,5.55,11.28,12.39s-5,12.4-11.28,12.4H11.29C5.05,173.56,0,179.11,0,186s5.05,12.39,11.29,12.39H323.71C330,198.35,335,192.81,335,186s-5.05-12.4-11.29-12.4H286.4c6.23,0,11.28-5.55,11.28-12.4s-5.05-12.39-11.28-12.39h56.72c6.23,0,11.28-5.55,11.28-12.4S349.35,124,343.12,124Z"/><path class="cls-4" d="M328.28,193.55c0,4.59-4.51,8.3-10.07,8.3H100.43c-5.56,0-10.07-3.71-10.07-8.3h0c0-4.59,4.51-8.31,10.07-8.31H318.21c5.56,0,10.07,3.72,10.07,8.31Z"/><path class="cls-5" d="M90.48,192.57a8,8,0,0,0-.12,1c0,4.59,4.51,8.3,10.07,8.3H318.21c5.56,0,10.07-3.71,10.07-8.3a8,8,0,0,0-.12-1Z"/><rect class="cls-6" x="90.36" y="185.24" width="237.91" height="8.3"/><path class="cls-7" d="M303.57,53.4c6.14,0,7.65.66,7.65,5.75V180.09c0,5.1-1.51,5.76-7.65,5.76H115.07c-6.14,0-7.65-.66-7.65-5.76V59.15c0-5.09,1.51-5.75,7.65-5.75Z"/><path class="cls-8" d="M107.42,59.15V180.09c0,3,.53,4.46,2.21,5.15a9.35,9.35,0,0,1-.47-3.41V60.89c0-5.09,1.5-5.75,7.64-5.75H305.31a15.36,15.36,0,0,1,5.44.6c-.81-2-2.83-2.34-7.18-2.34H115.07C108.93,53.4,107.42,54.06,107.42,59.15Z"/><path class="cls-9" d="M221.52,58.84c0,1.2-.63,2.17-1.4,2.17h-13c-.77,0-1.4-1-1.4-2.17h0c0-1.19.63-2.16,1.4-2.16h13c.77,0,1.4,1,1.4,2.16Z"/><path class="cls-9" d="M227.14,58.84A2.16,2.16,0,1,1,225,56.68,2.17,2.17,0,0,1,227.14,58.84Z"/><rect class="cls-10" x="113.84" y="63.34" width="189.3" height="115.36"/><rect class="cls-11" x="125.44" y="63.34" width="167.3" height="115.36"/><rect class="cls-12" x="140.78" y="76.86" width="32.23" height="5.97"/><rect class="cls-13" x="140.78" y="87.6" width="68.3" height="5.97"/><rect class="cls-14" x="140.78" y="100.73" width="24.75" height="5.97"/><rect class="cls-15" x="173.02" y="100.73" width="107.63" height="5.97"/><rect class="cls-12" x="140.78" y="136.53" width="24.75" height="5.97"/><rect class="cls-15" x="173.02" y="136.53" width="107.63" height="5.97"/><rect class="cls-13" x="149.42" y="113.26" width="16.11" height="5.97"/><rect class="cls-15" x="173.02" y="113.26" width="107.63" height="5.97"/><rect class="cls-13" x="149.42" y="124.59" width="16.11" height="5.97"/><rect class="cls-15" x="173.02" y="124.59" width="71.95" height="5.97"/><rect class="cls-16" x="251.3" y="124.59" width="29.35" height="5.97"/><rect class="cls-13" x="149.42" y="148.46" width="16.11" height="5.97"/><rect class="cls-15" x="173.02" y="148.46" width="71.95" height="5.97"/><rect class="cls-16" x="251.3" y="148.46" width="29.35" height="5.97"/><rect class="cls-16" x="215.99" y="87.6" width="19.76" height="5.97"/><polygon class="cls-17" points="118.39 66.73 303.15 66.73 303.15 63.34 113.84 63.34 113.84 178.69 118.39 178.69 118.39 66.73"/><path class="cls-7" d="M124.51,103.07c0,1-1.13,1.72-2.52,1.72h0c-1.4,0-2.53-.77-2.53-1.72V96.21c0-.95,1.13-1.72,2.53-1.72h0c1.39,0,2.52.77,2.52,1.72Z"/><path class="cls-7" d="M124.51,114.06c0,1-1.13,1.72-2.52,1.72h0c-1.4,0-2.53-.77-2.53-1.72v-6.85c0-1,1.13-1.73,2.53-1.73h0c1.39,0,2.52.77,2.52,1.73Z"/><path class="cls-7" d="M124.51,130.67c0,1-1.13,1.72-2.52,1.72h0c-1.4,0-2.53-.77-2.53-1.72v-6.86c0-1,1.13-1.72,2.53-1.72h0c1.39,0,2.52.77,2.52,1.72Z"/><path class="cls-18" d="M123.59,94.9v9.49a1.59,1.59,0,0,0,.92-1.32V96.21A1.56,1.56,0,0,0,123.59,94.9Z"/><path class="cls-18" d="M123.59,105.89v9.49a1.59,1.59,0,0,0,.92-1.32v-6.85A1.57,1.57,0,0,0,123.59,105.89Z"/><path class="cls-18" d="M123.59,122.5V132a1.59,1.59,0,0,0,.92-1.32v-6.86A1.56,1.56,0,0,0,123.59,122.5Z"/><path class="cls-7" d="M122.28,207.71c0,3.82-.41,4.75-3.58,4.75H40.65c-3.16,0-3.58-.93-3.58-4.75V90.43c0-3.82.42-4.76,3.58-4.76H118.7c3.17,0,3.58.94,3.58,4.76Z"/><path class="cls-18" d="M118.7,85.67H40.65c-1.86,0-2.77.33-3.2,1.37a6,6,0,0,1,2.12-.29h78c3.18,0,3.59.94,3.59,4.76V208.79a9.61,9.61,0,0,1-.38,3.38c1.24-.5,1.46-1.76,1.46-4.46V90.43C122.28,86.61,121.87,85.67,118.7,85.67Z"/><path class="cls-11" d="M40.46,141.48c.75,0,1.35.39,1.35.87v8.08c0,.48-.6.87-1.35.87h0c-.74,0-1.35-.39-1.35-.87v-8.08c0-.48.61-.87,1.35-.87Z"/><path class="cls-11" d="M40.46,138a1.35,1.35,0,1,1-1.35,1.35A1.34,1.34,0,0,1,40.46,138Z"/><rect class="cls-16" x="43.26" y="90.69" width="71.31" height="117.78"/><rect class="cls-11" x="43.26" y="123.04" width="71.31" height="25.79"/><rect class="cls-5" x="43.26" y="109.1" width="71.31" height="13.93"/><rect class="cls-15" x="43.26" y="148.83" width="71.31" height="44.89"/><rect class="cls-19" x="43.26" y="193.72" width="71.31" height="14.75"/><path class="cls-20" d="M65.24,116.47a2,2,0,0,1-2,2H55.63a2,2,0,0,1-2-2h0a2,2,0,0,1,2-2H63.2a2,2,0,0,1,2,2Z"/><path class="cls-14" d="M80.89,116.47a2,2,0,0,1-2,2H71.29a2,2,0,0,1-2.05-2h0a2,2,0,0,1,2.05-2h7.56a2,2,0,0,1,2,2Z"/><path class="cls-12" d="M95.55,116.47a2.05,2.05,0,0,1-2,2H85.94a2.05,2.05,0,0,1-2-2h0a2.05,2.05,0,0,1,2-2H93.5a2.05,2.05,0,0,1,2,2Z"/><path class="cls-21" d="M110,116.47a2,2,0,0,1-2,2h-7.57a2.05,2.05,0,0,1-2-2h0a2.05,2.05,0,0,1,2-2H108a2,2,0,0,1,2,2Z"/><path class="cls-22" d="M63.68,135.61a8,8,0,1,1-8-8A8,8,0,0,1,63.68,135.61Z"/><path class="cls-23" d="M86.5,135.61a8,8,0,1,1-8-8A8,8,0,0,1,86.5,135.61Z"/><path class="cls-24" d="M109.31,135.61a8,8,0,1,1-8-8A8,8,0,0,1,109.31,135.61Z"/><path class="cls-25" d="M58.86,135.49a3.16,3.16,0,1,1-3.16-3.16A3.16,3.16,0,0,1,58.86,135.49Z"/><path class="cls-25" d="M62,135.91v-1l-1.68-.67a4.63,4.63,0,0,0-.46-1.12l.58-1.79-.73-.73-1.66.71a5,5,0,0,0-1.12-.46l-.85-1.67h-1l-.68,1.67a4.75,4.75,0,0,0-1.11.47l-1.79-.58-.73.72.71,1.66a5,5,0,0,0-.47,1.12l-1.67.86v1l1.68.67a4.4,4.4,0,0,0,.46,1.12l-.57,1.78.72.73,1.66-.7a5,5,0,0,0,1.12.46l.85,1.67h1l.68-1.67a5,5,0,0,0,1.12-.47l1.78.58.73-.73-.71-1.66a4.82,4.82,0,0,0,.47-1.12Z"/><path class="cls-26" d="M78.35,130.73a3.91,3.91,0,0,0-3.9,3.9c0,2.75,2.67,3,2.67,4.36v.37h2.72v-.46c0-1.34,2.41-1.52,2.41-4.27A3.91,3.91,0,0,0,78.35,130.73Z"/><path class="cls-27" d="M77.25,141.41a1.35,1.35,0,0,0,2.46,0Z"/><rect class="cls-26" x="77.12" y="140.04" width="2.72" height="0.66"/><rect class="cls-27" x="76.94" y="140.72" width="3.08" height="0.65"/><rect class="cls-26" x="76.94" y="139.38" width="3.08" height="0.65"/><line class="cls-26" x1="78.35" y1="129.99" x2="78.35" y2="128.78"/><line class="cls-26" x1="83.04" y1="134.55" x2="84.17" y2="134.55"/><line class="cls-26" x1="72.85" y1="134.55" x2="73.98" y2="134.55"/><line class="cls-26" x1="81" y1="131.06" x2="81.9" y2="129.99"/><line class="cls-26" x1="75.04" y1="137.25" x2="73.98" y2="138.14"/><line class="cls-26" x1="75.04" y1="131.47" x2="74.21" y2="130.73"/><line class="cls-26" x1="81.68" y1="137.25" x2="82.45" y2="138.14"/><line class="cls-26" x1="77.95" y1="139.38" x2="77.26" y2="134.55"/><line class="cls-26" x1="79.07" y1="139.38" x2="79.75" y2="134.55"/><line class="cls-26" x1="77.33" y1="135" x2="79.66" y2="135"/><path class="cls-28" d="M100.91,129.81a.83.83,0,0,1,1.66,0"/><polyline class="cls-28" points="103.13 130.34 105.48 130.34 105.48 141.25 97.99 141.25 97.99 130.34 100.34 130.34"/><polyline class="cls-28" points="103.13 131.03 104.88 131.03 104.88 138.53 102.42 140.38 98.59 140.38 98.59 131.03 100.34 131.03"/><polygon class="cls-28" points="104.88 138.53 102.42 140.38 103.65 138.02 104.88 138.53"/><rect class="cls-28" x="100.34" y="129.86" width="2.79" height="1.35"/><path class="cls-28" d="M101.38,130.51a.32.32,0,1,1-.63,0,.32.32,0,1,1,.63,0Z"/><path class="cls-28" d="M102.71,130.51a.32.32,0,1,1-.64,0,.32.32,0,1,1,.64,0Z"/><line class="cls-29" x1="99.6" y1="132.92" x2="104.04" y2="132.92"/><line class="cls-29" x1="99.6" y1="133.77" x2="102.15" y2="133.77"/><line class="cls-29" x1="102.57" y1="133.77" x2="104.04" y2="133.77"/><line class="cls-29" x1="99.6" y1="134.55" x2="102.15" y2="134.55"/><line class="cls-29" x1="102.57" y1="134.55" x2="104.04" y2="134.55"/><line class="cls-29" x1="99.6" y1="135.32" x2="102.15" y2="135.32"/><line class="cls-29" x1="102.57" y1="135.32" x2="104.04" y2="135.32"/><line class="cls-29" x1="99.6" y1="136.07" x2="102.15" y2="136.07"/><line class="cls-29" x1="102.57" y1="136.07" x2="104.04" y2="136.07"/><line class="cls-29" x1="99.6" y1="136.84" x2="102.15" y2="136.84"/><line class="cls-29" x1="102.57" y1="136.84" x2="104.04" y2="136.84"/><line class="cls-29" x1="99.6" y1="137.62" x2="102.15" y2="137.62"/><line class="cls-29" x1="102.57" y1="137.62" x2="104.04" y2="137.62"/><rect class="cls-30" x="48.43" y="153.83" width="21.51" height="2.93"/><rect class="cls-30" x="48.43" y="160.17" width="38.88" height="1.1"/><rect class="cls-30" x="48.43" y="164.06" width="38.88" height="1.1"/><rect class="cls-30" x="48.43" y="167.34" width="26.48" height="1.1"/><rect class="cls-31" x="91.85" y="153.83" width="18.16" height="18.16"/><polygon class="cls-32" points="100.94 162.91 91.85 171.99 98.3 162.91 91.85 153.83 100.94 162.91"/><polygon class="cls-32" points="100.94 162.91 110.02 171.99 103.58 162.91 110.02 153.83 100.94 162.91"/><rect class="cls-30" x="48.43" y="174.36" width="21.51" height="2.93"/><rect class="cls-30" x="48.43" y="180.7" width="38.88" height="1.1"/><rect class="cls-30" x="48.43" y="184.59" width="38.88" height="1.1"/><rect class="cls-30" x="48.43" y="187.88" width="26.48" height="1.1"/><rect class="cls-31" x="91.85" y="174.36" width="18.16" height="18.16"/><polygon class="cls-32" points="100.94 183.44 91.85 192.52 98.3 183.44 91.85 174.36 100.94 183.44"/><polygon class="cls-32" points="100.94 183.44 110.02 192.52 103.58 183.44 110.02 174.36 100.94 183.44"/><rect class="cls-33" x="53.39" y="198.01" width="51.05" height="0.97"/><rect class="cls-33" x="58.3" y="201.42" width="41.21" height="0.97"/><rect class="cls-15" x="43.26" y="90.69" width="71.31" height="12.78"/><rect class="cls-34" x="43.26" y="96.68" width="71.31" height="12.42"/><path class="cls-35" d="M103.17,93.57a2.25,2.25,0,1,1-2.25-2.24A2.24,2.24,0,0,1,103.17,93.57Z"/><path class="cls-35" d="M109.24,93.57A2.25,2.25,0,1,1,107,91.33,2.24,2.24,0,0,1,109.24,93.57Z"/><path class="cls-35" d="M97.18,93.57a2.25,2.25,0,1,1-2.25-2.24A2.24,2.24,0,0,1,97.18,93.57Z"/><rect class="cls-15" x="45.52" y="99.17" width="44.71" height="7.45"/><rect class="cls-7" x="83.13" y="99.17" width="7.09" height="7.45"/><path class="cls-31" d="M48.6,103.44a.82.82,0,0,0,.44.14c.25,0,.36-.13.36-.28s-.1-.25-.34-.34-.49-.3-.49-.52a.57.57,0,0,1,.64-.54.93.93,0,0,1,.45.11l-.09.25a.65.65,0,0,0-.37-.11c-.2,0-.31.11-.31.25s.11.22.35.31.48.29.48.56-.25.55-.69.55a1.14,1.14,0,0,1-.52-.12Z"/><path class="cls-31" d="M51.18,103.79l0-.24h0a.67.67,0,0,1-.56.28.53.53,0,0,1-.57-.53c0-.45.4-.69,1.11-.69v0a.38.38,0,0,0-.42-.42,1,1,0,0,0-.48.13l-.08-.22a1.18,1.18,0,0,1,.61-.16c.57,0,.7.38.7.75v.69a3.09,3.09,0,0,0,0,.45Zm0-1c-.37,0-.78.06-.78.42a.29.29,0,0,0,.31.32.46.46,0,0,0,.45-.31.36.36,0,0,0,0-.11Z"/><path class="cls-31" d="M52,102.44c0-.19,0-.35,0-.5h.29l0,.3h0a.63.63,0,0,1,.58-.34.54.54,0,0,1,.52.37h0a.63.63,0,0,1,.21-.24.59.59,0,0,1,.41-.13c.24,0,.6.16.6.8v1.09H54.3v-1.05c0-.35-.13-.57-.4-.57a.42.42,0,0,0-.39.31.4.4,0,0,0,0,.17v1.14h-.33v-1.11c0-.29-.13-.51-.38-.51a.46.46,0,0,0-.42.34.45.45,0,0,0,0,.16v1.12H52Z"/><path class="cls-31" d="M55.18,102.54c0-.23,0-.42,0-.6h.3l0,.32h0a.7.7,0,0,1,.65-.36.84.84,0,0,1,.79.94.88.88,0,0,1-.84,1,.65.65,0,0,1-.57-.29h0v1h-.33Zm.33.49a.59.59,0,0,0,0,.14.51.51,0,0,0,.5.39c.35,0,.56-.29.56-.71s-.2-.69-.55-.69a.55.55,0,0,0-.51.42.59.59,0,0,0,0,.14Z"/><path class="cls-31" d="M57.35,101.08h.34v2.71h-.34Z"/><path class="cls-31" d="M58.44,102.92a.58.58,0,0,0,.63.64,1.26,1.26,0,0,0,.51-.09l.06.24a1.57,1.57,0,0,1-.61.11.86.86,0,0,1-.91-.93.9.9,0,0,1,.86-1,.78.78,0,0,1,.77.87.49.49,0,0,1,0,.15Zm1-.24a.47.47,0,0,0-.46-.54.56.56,0,0,0-.52.54Z"/><path class="cls-31" d="M61.38,101.41v.53h.48v.26h-.48v1c0,.23.06.36.25.36l.19,0,0,.25a.8.8,0,0,1-.3,0,.46.46,0,0,1-.36-.14.66.66,0,0,1-.13-.48v-1h-.29v-.26h.29v-.44Z"/><path class="cls-31" d="M62.4,102.92a.59.59,0,0,0,.63.64,1.26,1.26,0,0,0,.51-.09l.06.24a1.57,1.57,0,0,1-.61.11.86.86,0,0,1-.91-.93.9.9,0,0,1,.87-1,.78.78,0,0,1,.76.87c0,.07,0,.12,0,.15Zm1-.24a.47.47,0,0,0-.46-.54.56.56,0,0,0-.52.54Z"/><path class="cls-31" d="M64.27,101.94l.26.4c.07.1.13.2.19.3h0l.18-.31.26-.39h.37l-.63.89.64,1h-.38l-.27-.42-.19-.32h0l-.2.32-.27.42h-.36l.65-1-.63-.9Z"/><path class="cls-31" d="M66.33,101.41v.53h.48v.26h-.48v1c0,.23.07.36.26.36l.19,0,0,.25a.8.8,0,0,1-.3,0,.48.48,0,0,1-.37-.14.71.71,0,0,1-.12-.48v-1h-.29v-.26H66v-.44Z"/><path class="cls-36" d="M87.14,101.24a1.37,1.37,0,1,1-1.88-.46A1.36,1.36,0,0,1,87.14,101.24Z"/><line class="cls-36" x1="86.67" y1="103.11" x2="86.89" y2="103.47"/><line class="cls-37" x1="86.97" y1="103.59" x2="87.91" y2="105.16"/><rect class="cls-35" x="45.75" y="91.83" width="44.25" height="3.49"/><polygon class="cls-38" points="45.28 203.97 45.28 90.69 43.26 90.69 43.26 208.47 114.56 208.47 114.56 203.97 45.28 203.97"/><path class="cls-7" d="M150.47,131.64c0,.82-1,1.48-2.17,1.48h0c-1.2,0-2.18-.66-2.18-1.48v-5.91c0-.82,1-1.48,2.18-1.48h0c1.2,0,2.17.66,2.17,1.48Z"/><path class="cls-7" d="M150.47,141.12c0,.82-1,1.48-2.17,1.48h0c-1.2,0-2.18-.66-2.18-1.48v-5.91c0-.82,1-1.49,2.18-1.49h0c1.2,0,2.17.67,2.17,1.49Z"/><path class="cls-7" d="M150.47,155.44c0,.82-1,1.48-2.17,1.48h0c-1.2,0-2.18-.66-2.18-1.48v-5.91c0-.82,1-1.49,2.18-1.49h0c1.2,0,2.17.67,2.17,1.49Z"/><path class="cls-18" d="M149.68,124.6v8.18a1.38,1.38,0,0,0,.79-1.14v-5.91A1.35,1.35,0,0,0,149.68,124.6Z"/><path class="cls-18" d="M149.68,134.07v8.18a1.35,1.35,0,0,0,.79-1.13v-5.91A1.37,1.37,0,0,0,149.68,134.07Z"/><path class="cls-18" d="M149.68,148.39v8.19a1.38,1.38,0,0,0,.79-1.14v-5.91A1.37,1.37,0,0,0,149.68,148.39Z"/><path class="cls-7" d="M148.37,216.56c0,3.29-.35,4.1-3.08,4.1h-48c-2.74,0-3.09-.81-3.09-4.1V120.74c0-3.29.35-4.1,3.09-4.1h48c2.73,0,3.08.81,3.08,4.1Z"/><path class="cls-18" d="M145.29,116.64h-48c-1.61,0-2.39.29-2.77,1.18a5.18,5.18,0,0,1,1.83-.25h48c2.74,0,3.09.81,3.09,4.1v95.82a8.31,8.31,0,0,1-.32,2.92c1.07-.43,1.25-1.51,1.25-3.85V120.74C148.37,117.45,148,116.64,145.29,116.64Z"/><path class="cls-11" d="M125.42,121.29c0,.64-.33,1.16-.75,1.16h-7c-.42,0-.75-.52-.75-1.16h0c0-.64.33-1.16.75-1.16h7c.42,0,.75.52.75,1.16Z"/><path class="cls-11" d="M128,215c0,1.93-.47,3.5-1.06,3.5H117c-.59,0-1.06-1.57-1.06-3.5h0c0-1.94.47-3.5,1.06-3.5h9.9c.59,0,1.06,1.56,1.06,3.5Z"/><path class="cls-11" d="M128.44,121.29a1.16,1.16,0,1,1-1.16-1.16A1.15,1.15,0,0,1,128.44,121.29Z"/><rect class="cls-16" x="96.32" y="124.96" width="49.13" height="84.62"/><rect class="cls-15" x="96.32" y="155.85" width="49.07" height="53.74"/><rect class="cls-11" x="96.32" y="155.85" width="20.21" height="45.02"/><rect class="cls-5" x="96.32" y="142.54" width="49.07" height="13.3"/><rect class="cls-19" x="96.32" y="200.87" width="49.07" height="8.71"/><rect class="cls-39" x="100.55" y="144.78" width="40.78" height="3.27"/><path class="cls-20" d="M109,152.12a1.48,1.48,0,0,1-1.48,1.48H102a1.48,1.48,0,0,1-1.48-1.48h0a1.48,1.48,0,0,1,1.48-1.48h5.46a1.48,1.48,0,0,1,1.48,1.48Z"/><path class="cls-14" d="M120.28,152.12a1.48,1.48,0,0,1-1.48,1.48h-5.46a1.48,1.48,0,0,1-1.48-1.48h0a1.48,1.48,0,0,1,1.48-1.48h5.46a1.48,1.48,0,0,1,1.48,1.48Z"/><path class="cls-12" d="M130.86,152.12a1.48,1.48,0,0,1-1.48,1.48h-5.46a1.48,1.48,0,0,1-1.48-1.48h0a1.48,1.48,0,0,1,1.48-1.48h5.46a1.48,1.48,0,0,1,1.48,1.48Z"/><path class="cls-21" d="M141.33,152.12a1.48,1.48,0,0,1-1.48,1.48h-5.46a1.48,1.48,0,0,1-1.48-1.48h0a1.48,1.48,0,0,1,1.48-1.48h5.46a1.48,1.48,0,0,1,1.48,1.48Z"/><path class="cls-22" d="M111.49,192.41a5.89,5.89,0,1,1-5.89-5.88A5.89,5.89,0,0,1,111.49,192.41Z"/><path class="cls-40" d="M107.93,192.32A2.33,2.33,0,1,1,105.6,190,2.33,2.33,0,0,1,107.93,192.32Z"/><path class="cls-40" d="M110.27,192.63v-.76l-1.23-.5a3.94,3.94,0,0,0-.34-.82l.42-1.31-.53-.54-1.23.52a3.73,3.73,0,0,0-.82-.34l-.63-1.23h-.76l-.49,1.23a3.73,3.73,0,0,0-.82.34l-1.32-.42-.54.53.52,1.23a3.73,3.73,0,0,0-.34.82l-1.23.63v.76l1.23.49a3.39,3.39,0,0,0,.35.83l-.43,1.31.54.54,1.22-.52a3.37,3.37,0,0,0,.83.34l.62,1.23h.76l.5-1.23a3.32,3.32,0,0,0,.82-.35l1.32.43.53-.53-.52-1.23a3.3,3.3,0,0,0,.34-.82Z"/><path class="cls-23" d="M111.49,178.22a5.89,5.89,0,1,1-5.89-5.88A5.89,5.89,0,0,1,111.49,178.22Z"/><path class="cls-41" d="M105.49,174.63a2.87,2.87,0,0,0-2.88,2.87c0,2,2,2.23,2,3.21V181h2v-.34c0-1,1.78-1.12,1.78-3.14A2.87,2.87,0,0,0,105.49,174.63Z"/><path class="cls-42" d="M104.68,182.49a.88.88,0,0,0,.9.58.9.9,0,0,0,.91-.58Z"/><rect class="cls-41" x="104.58" y="181.48" width="2.01" height="0.49"/><rect class="cls-42" x="104.45" y="181.98" width="2.27" height="0.48"/><rect class="cls-41" x="104.45" y="181" width="2.27" height="0.48"/><line class="cls-41" x1="105.49" y1="174.08" x2="105.49" y2="173.19"/><line class="cls-41" x1="108.94" y1="177.44" x2="109.77" y2="177.44"/><line class="cls-41" x1="101.44" y1="177.44" x2="102.26" y2="177.44"/><line class="cls-41" x1="107.44" y1="174.87" x2="108.1" y2="174.08"/><line class="cls-41" x1="103.05" y1="179.43" x2="102.26" y2="180.08"/><line class="cls-41" x1="103.05" y1="175.17" x2="102.44" y2="174.63"/><line class="cls-41" x1="107.94" y1="179.43" x2="108.5" y2="180.08"/><line class="cls-41" x1="105.19" y1="181" x2="104.69" y2="177.44"/><line class="cls-41" x1="106.02" y1="181" x2="106.52" y2="177.44"/><line class="cls-41" x1="104.73" y1="177.77" x2="106.45" y2="177.77"/><path class="cls-24" d="M111.49,165.06a5.89,5.89,0,1,1-5.89-5.88A5.89,5.89,0,0,1,111.49,165.06Z"/><path class="cls-43" d="M105.3,160.78a.62.62,0,0,1,.61-.61.61.61,0,0,1,.61.61"/><polyline class="cls-43" points="106.93 161.18 108.67 161.18 108.67 169.22 103.15 169.22 103.15 161.18 104.88 161.18"/><polyline class="cls-43" points="106.93 161.69 108.22 161.69 108.22 167.21 106.41 168.58 103.59 168.58 103.59 161.69 104.88 161.69"/><polygon class="cls-43" points="108.22 167.21 106.41 168.58 107.31 166.83 108.22 167.21"/><rect class="cls-43" x="104.88" y="160.82" width="2.05" height="1"/><path class="cls-43" d="M105.65,161.3a.23.23,0,0,1-.23.24.24.24,0,0,1-.24-.24.23.23,0,0,1,.24-.23A.23.23,0,0,1,105.65,161.3Z"/><path class="cls-43" d="M106.62,161.3a.23.23,0,0,1-.23.24.24.24,0,0,1-.24-.24.23.23,0,0,1,.24-.23A.23.23,0,0,1,106.62,161.3Z"/><line class="cls-44" x1="104.33" y1="163.08" x2="107.6" y2="163.08"/><line class="cls-44" x1="104.33" y1="163.71" x2="106.21" y2="163.71"/><line class="cls-44" x1="106.53" y1="163.71" x2="107.6" y2="163.71"/><line class="cls-44" x1="104.33" y1="164.28" x2="106.21" y2="164.28"/><line class="cls-44" x1="106.53" y1="164.28" x2="107.6" y2="164.28"/><line class="cls-44" x1="104.33" y1="164.85" x2="106.21" y2="164.85"/><line class="cls-44" x1="106.53" y1="164.85" x2="107.6" y2="164.85"/><line class="cls-44" x1="104.33" y1="165.4" x2="106.21" y2="165.4"/><line class="cls-44" x1="106.53" y1="165.4" x2="107.6" y2="165.4"/><line class="cls-44" x1="104.33" y1="165.97" x2="106.21" y2="165.97"/><line class="cls-44" x1="106.53" y1="165.97" x2="107.6" y2="165.97"/><line class="cls-44" x1="104.33" y1="166.54" x2="106.21" y2="166.54"/><line class="cls-44" x1="106.53" y1="166.54" x2="107.6" y2="166.54"/><rect class="cls-30" x="118.86" y="158.99" width="22.47" height="2.8"/><rect class="cls-30" x="118.86" y="165.05" width="22.47" height="1.05"/><rect class="cls-30" x="118.86" y="168.76" width="22.47" height="1.05"/><rect class="cls-30" x="118.86" y="171.9" width="18.59" height="1.05"/><rect class="cls-30" x="118.86" y="194.38" width="22.47" height="1.05"/><rect class="cls-30" x="118.86" y="198.1" width="22.47" height="1.05"/><rect class="cls-31" x="119.48" y="175.16" width="21.84" height="17.35"/><polygon class="cls-32" points="130.41 183.83 119.48 192.5 127.23 183.83 119.48 175.16 130.41 183.83"/><polygon class="cls-32" points="130.41 183.83 141.33 192.5 133.58 183.83 141.33 175.16 130.41 183.83"/><rect class="cls-33" x="101.07" y="203.14" width="40.25" height="0.92"/><rect class="cls-33" x="104.95" y="206.39" width="32.5" height="0.92"/><rect class="cls-15" x="96.32" y="124.96" width="49.07" height="12.21"/><rect class="cls-34" x="96.32" y="130.68" width="49.07" height="11.86"/><path class="cls-35" d="M134.5,127.71a2.14,2.14,0,1,1-2.14-2.14A2.14,2.14,0,0,1,134.5,127.71Z"/><circle class="cls-35" cx="138.16" cy="127.71" r="2.14"/><path class="cls-35" d="M128.78,127.71a2.14,2.14,0,1,1-2.14-2.14A2.14,2.14,0,0,1,128.78,127.71Z"/><rect class="cls-15" x="99.5" y="133.06" width="42.7" height="7.12"/><rect class="cls-7" x="135.42" y="133.06" width="6.78" height="7.12"/><path class="cls-31" d="M102.45,137.14a.84.84,0,0,0,.42.12c.23,0,.34-.11.34-.26s-.09-.24-.33-.32-.46-.29-.46-.5a.54.54,0,0,1,.61-.52.88.88,0,0,1,.43.11l-.08.23a.74.74,0,0,0-.36-.1c-.19,0-.3.11-.3.24s.11.21.34.3.46.27.46.53-.24.53-.66.53a1,1,0,0,1-.49-.12Z"/><path class="cls-31" d="M104.91,137.46l0-.22h0a.63.63,0,0,1-.54.26.51.51,0,0,1-.54-.5c0-.43.38-.66,1.07-.66v0a.36.36,0,0,0-.41-.4.91.91,0,0,0-.46.13l-.07-.21a1.07,1.07,0,0,1,.58-.16c.54,0,.67.37.67.72V137a2.67,2.67,0,0,0,0,.42Zm0-.9c-.35,0-.74.06-.74.4a.28.28,0,0,0,.3.31.43.43,0,0,0,.42-.3.18.18,0,0,0,0-.1Z"/><path class="cls-31" d="M105.69,136.18a3.54,3.54,0,0,0,0-.48H106V136h0a.62.62,0,0,1,.56-.32.53.53,0,0,1,.5.35h0a.92.92,0,0,1,.2-.23.61.61,0,0,1,.39-.12c.23,0,.58.15.58.77v1h-.31v-1c0-.34-.13-.55-.39-.55a.43.43,0,0,0-.38.29.88.88,0,0,0,0,.16v1.09h-.31v-1.05c0-.28-.13-.49-.37-.49a.44.44,0,0,0-.4.32.41.41,0,0,0,0,.16v1.06h-.31Z"/><path class="cls-31" d="M108.73,136.28c0-.23,0-.41,0-.58H109l0,.3h0a.69.69,0,0,1,.62-.34.8.8,0,0,1,.75.9.83.83,0,0,1-.8.94.63.63,0,0,1-.55-.27h0v1h-.32Zm.32.47a.57.57,0,0,0,0,.13.49.49,0,0,0,.48.37c.34,0,.54-.27.54-.68s-.19-.66-.53-.66a.52.52,0,0,0-.48.4.59.59,0,0,0,0,.13Z"/><path class="cls-31" d="M110.8,134.88h.32v2.58h-.32Z"/><path class="cls-31" d="M111.84,136.64a.57.57,0,0,0,.61.61,1.19,1.19,0,0,0,.49-.09l0,.23a1.45,1.45,0,0,1-.59.11.82.82,0,0,1-.86-.89.85.85,0,0,1,.82-1,.75.75,0,0,1,.73.83.58.58,0,0,1,0,.15Zm.94-.23a.45.45,0,0,0-.44-.52.52.52,0,0,0-.49.52Z"/><path class="cls-31" d="M114.65,135.19v.51h.46v.24h-.46v1c0,.21.06.34.24.34l.19,0v.24a.93.93,0,0,1-.28,0,.48.48,0,0,1-.35-.13.68.68,0,0,1-.12-.46v-1h-.28v-.24h.28v-.42Z"/><path class="cls-31" d="M115.62,136.64a.57.57,0,0,0,.61.61,1.19,1.19,0,0,0,.49-.09l0,.23a1.4,1.4,0,0,1-.58.11.82.82,0,0,1-.87-.89.85.85,0,0,1,.83-1,.75.75,0,0,1,.73.83c0,.07,0,.12,0,.15Zm.95-.23a.46.46,0,0,0-.45-.52.53.53,0,0,0-.49.52Z"/><path class="cls-31" d="M117.41,135.7l.25.38c.07.1.12.19.18.29h0c.06-.11.12-.2.18-.3l.25-.37h.34l-.6.85.62.91h-.36l-.26-.39c-.07-.11-.13-.2-.19-.31h0c-.06.11-.12.2-.19.31l-.25.39H117l.62-.9-.6-.86Z"/><path class="cls-31" d="M119.38,135.19v.51h.46v.24h-.46v1c0,.21.07.34.24.34l.19,0,0,.24a1.06,1.06,0,0,1-.29,0,.48.48,0,0,1-.35-.13.68.68,0,0,1-.12-.46v-1h-.27v-.24h.27v-.42Z"/><path class="cls-45" d="M139.25,135a1.3,1.3,0,1,1-1.79-.44A1.31,1.31,0,0,1,139.25,135Z"/><line class="cls-45" x1="138.81" y1="136.82" x2="139.02" y2="137.16"/><line class="cls-46" x1="139.09" y1="137.28" x2="139.99" y2="138.78"/><polygon class="cls-47" points="98.25 206.15 98.25 124.96 96.31 124.96 96.31 209.58 145.45 209.58 145.45 206.15 98.25 206.15"/></g></g></g></svg>