<svg xmlns="http://www.w3.org/2000/svg" viewBox="0 0 500 420.65"><defs><style>.cls-1{fill:#fff;}.cls-2{fill:#4fbfd6;}.cls-3{fill:#0092b9;}.cls-4{fill:#6ac0ed;}.cls-5{fill:#ffb9a9;}.cls-6{fill:#ff9b80;}.cls-7{fill:#db543a;}.cls-8{fill:#ffaea6;}.cls-9{fill:#1b89af;}.cls-10{fill:#efa3a3;}.cls-11,.cls-18{fill:none;}.cls-12{fill:#ff9b97;}.cls-13{fill:#e5cfd3;}.cls-14{fill:#22adc2;}.cls-15{fill:#666;}.cls-16{fill:#a53b2d;}.cls-17{fill:#ff4500;}.cls-18{stroke:#fff;stroke-miterlimit:10;stroke-width:2px;}</style></defs><g id="Layer_2" data-name="Layer 2"><g id="OBJECTS"><path class="cls-1" d="M0,380.79H500V321.65c-1-2.24-1.92-3.75-2.78-4.26-6.1,3.62-11.44,1.4-11.44,7.73-8.12-15.37-14.49-29.43-22.61-5-4.06-14.47-3.29-77-30.71-65.25-22.35,9.94-20.57,64.35-24.63,81.53-12.19-19.89-21.33-12.66-36.57,1.81-27-35.69-32.82,8.27-51,12.93-15.24-5.43-15.1-30.85-30.33-25.42-8.13,2.71-15.15,23.34-24.29,22.44-5.08-.91-9.14-9.05-14.22-10.86-14.22-2.71-20.32,5.43-28.44,13.57-9.15-12.66-14.22-36.17-33.52-39.79-18.29-4.52-29.46,10.85-38.6,20.8-12.19-22.61-21.33-51.54-38.6-72.34-27.42-32.55-65,21.7-64,46.12-11.17-36.17-21.33,19-20.32,30.74-11.17-12.66-12.18,9.95-11.17,17.18C11,347.53,4.88,351,0,357.39Z"/><path class="cls-2" d="M34.17,23.72a31,31,0,0,0,5.55-.93c2-1,2.53-2.05,4.79-2.66,1.52-.41,3.28.82,4.55.41,1.76-.62,2-2.67,3-3.49,4.29-3.48,7.07-1.44,11.1,1.23C66.46,14,63.18,7.41,70.25,5c6.56-2.26,15.13,3.9,16.65,8.41C86.64,8.44,89.42-.59,97.24,0c6.56.82,9.08,7.59,11.1,11.48,4.54-1.43,7.82,5.54,7.06,8.41,4.29-1.43,10.85-.82,11.35,3.69Z"/><path class="cls-3" d="M325.35,103.34a21.87,21.87,0,0,0,3.72-.58c1.35-.64,1.69-1.28,3.21-1.66,1-.26,2.2.51,3,.25,1.18-.38,1.35-1.66,2-2.18,2.87-2.18,4.73-.89,7.43.77,2.2-2.69,0-6.79,4.73-8.33,4.4-1.41,10.14,2.43,11.16,5.26-.17-3.08,1.69-8.72,6.93-8.34,4.39.51,6.08,4.75,7.43,7.18,3-.9,5.24,3.46,4.73,5.26,2.87-.9,7.27-.51,7.6,2.31Z"/><path class="cls-4" d="M452.66,48.5c-11,0-14-6.88-17.29-7.81-1.75-.63-4.76,2.1-6.52,1.16-4.76-2.5-4.26-10.22-10.77-8-2.51.94-3.76,2.81-6,1.88-2-.94-3.76-5.63-6-6.88-5.51-2.81-10,3.13-11.77,9.38-5-3.75-13,0-15.54,6.25-4-2.19-8.1-4.07-10.36,4.06Z"/><path d="M169.69,17.79H326.31a12.61,12.61,0,0,1,12.61,12.61V334.2a12.62,12.62,0,0,1-12.62,12.62H169.69a12.61,12.61,0,0,1-12.61-12.61V30.41A12.61,12.61,0,0,1,169.69,17.79Z"/><rect class="cls-5" x="164.3" y="43.88" width="167.39" height="274.85" rx="11.61"/><path class="cls-6" d="M265.58,34.55H210.51a2.55,2.55,0,1,1,0-5.1h55.07a2.55,2.55,0,1,1,0,5.1Z"/><path class="cls-6" d="M285.49,34.55H279.4a2.55,2.55,0,1,1,0-5.1h6.09a2.55,2.55,0,1,1,0,5.1Z"/><path class="cls-6" d="M271.06,337.73H224.94a4.48,4.48,0,1,1,0-9h46.12a4.48,4.48,0,1,1,0,9Z"/><path class="cls-7" d="M126.68,74.92c.83-3-1.33-10-5.83-9.16-2.67.5-4.4,2.5-6.74,3.16-2.83.84-3.51-.5-6.18-1-3.17-.67-6.23,2.68-6.23,6,0,3.5,3,2.33,2.31,5.83-.33,2.5-3.33,5.16-2.5,8,.84,2.66,4.34,1.5,5.17,3.66.5,1.84-2.83,4-3,6-.33,4.34,5,5.34,8.17,6.17,5.66,1.33,6.5-1,9.5-4.83,3.33-4.34,2-6.84,2.83-11.84.33-1.83.33-4,.67-5.66.5-1.5,1.66-2,1.16-3.67Z"/><polygon class="cls-8" points="99.87 136.06 97.02 115.59 110.06 95.99 137.38 95.79 153.21 92.14 173.41 82.25 175.93 83.84 156.16 98.68 138.53 104.96 134.78 133.4 114.86 133.4 111.13 107.46 104.35 118.59 102.61 137.59 99.87 136.06"/><polygon class="cls-8" points="116.85 95.93 123.19 105.83 129.51 95.93 116.85 95.93"/><path class="cls-8" d="M121,92.55,128.79,91l.45-6.74L130.72,83l-1.48-1.29-2.14-7.73-7.65,3.89.52,4.4-1,.41s-2-2.18-2.78-1.17.22,2.36,1.65,3.1l-1,3.63Z"/><rect class="cls-8" x="120.98" y="90.61" width="5.26" height="9.31"/><path class="cls-1" d="M127.85,221.72H140.5a12.17,12.17,0,0,1-8.36-6.37h-4.29Z"/><path class="cls-1" d="M121.68,221.72H109a12.19,12.19,0,0,0,8.36-6.37h4.28Z"/><path class="cls-9" d="M124.77,144.8l-3.09,70.55H117.4S109.31,159,110,146c.45-8.25,4.74-12.56,4.74-12.56h20s4.3,4.31,4.75,12.56c.7,13.07-7.39,69.39-7.39,69.39h-4.29Z"/><path class="cls-8" d="M175.93,83.84c1.55-1.27.45-2.44.45-2.44s1.79-4.83,1.48-5-4.45,5.83-4.45,5.83Z"/><polygon class="cls-10" points="126.24 91.49 126.24 91.95 120.98 94.34 120.98 92.53 126.24 91.49"/><polygon class="cls-11" points="125.57 163.09 123.97 163.09 124.77 144.8 125.57 163.09"/><path class="cls-1" d="M110.06,96l27.32-.2s-2.89,4.36,1.15,9.17l-3.75,28.44h-20l-3.62-25.94S113.58,100.88,110.06,96Z"/><polygon class="cls-7" points="98.88 139.72 102.49 139.72 102.49 401.69 96.25 401.69 98.88 139.72"/><polygon class="cls-7" points="149.62 139.72 146.01 139.72 146.01 401.69 152.25 401.69 149.62 139.72"/><rect class="cls-7" x="99.93" y="144.42" width="48.63" height="2.75"/><rect class="cls-7" x="99.82" y="183.07" width="48.86" height="2.75"/><rect class="cls-7" x="99.7" y="221.72" width="49.09" height="2.75"/><rect class="cls-7" x="99.59" y="260.37" width="49.31" height="2.75"/><rect class="cls-7" x="99.48" y="299.02" width="49.54" height="2.75"/><rect class="cls-7" x="99.36" y="337.67" width="49.77" height="2.75"/><rect class="cls-7" x="99.25" y="376.32" width="50" height="2.75"/><polygon class="cls-7" points="102.49 139.72 81.18 401.69 77.18 401.69 98.88 139.72 102.49 139.72"/><polygon class="cls-7" points="149.31 139.72 128.01 401.69 124.01 401.69 145.7 139.72 149.31 139.72"/><path class="cls-8" d="M102.61,137.59c2.27,3.85-1.1,2.11-1.1,2.11s-3.19,3.7-4.2,3.12c-1.39-.79,2.56-6.76,2.56-6.76Z"/><path class="cls-7" d="M207.51,320.09c-2.83-5-11.83-8-11.83-.17-.17,3.17.17,4-2.17,6-1.83,1.5-4.16,2.5-4,5.34.34,2.66,3.34,3.33,3.67,5.83.5,2.67-2.5,3.83-2.83,6.17-.17,2.16,1.66,4.16,2.33,6.33.83,3.33,1.83,6.5,6,5.5l17-3.5c4.17,1.67,6.33-2.5,6.33-5.83-.16-3-.66-4,1.17-6.67,1.67-2.67,3.67-4.17,2.17-7.67-.34-1-1.67-1.83-1.84-3-.16-1.33,1-2.16,1.17-3.33.5-3.67-2-5-5.17-5.83-1.33-.5-2.5-.34-3.66-1.17-.84-.67-.67-2-1.84-2.5C210.85,314.09,208,318.09,207.51,320.09Z"/><polygon class="cls-1" points="190.7 387.93 227.04 387.93 227.04 394.86 208.87 402.04 190.7 394.61 190.7 387.93"/><polygon class="cls-9" points="225.82 347.46 225.82 347.46 236.18 344.89 247.51 325.27 250.22 328.46 240.35 351.64 225.6 357.33 225.43 393.6 192.63 392.99 192.18 384.33 192.18 384.33 181.64 378.81 180.67 375.6 190.75 347.74 225.82 347.46"/><path class="cls-8" d="M211.89,347.91l-.1-6.32-7.34-.37.09,6.79S208.18,353.18,211.89,347.91Z"/><polygon class="cls-10" points="204.55 345.89 211.85 344.41 211.79 341.59 204.45 341.22 204.55 345.89"/><path class="cls-8" d="M217.63,329.81l-3.41,10.81-5.75,3.26-6.26-3.14-3.41-10.22s6.42-.75,9.24-3.79c0,0-1.95,2.66-7.48,4.36,0,0,6.49-.37,9.21-4.24A13.61,13.61,0,0,0,217.63,329.81Z"/><path class="cls-8" d="M200.07,332.34s-2.42-.55-2.16,1.23c.33,2.24,3.57,3.33,3.57,3.33Z"/><path class="cls-8" d="M216.06,332.34s2.41-.55,2.15,1.23c-.33,2.24-3.57,3.33-3.57,3.33Z"/><path class="cls-12" d="M210,337l.28-.19-.47-.4-.23-.18-.13-.1a4.54,4.54,0,0,0-.44-.28,1.89,1.89,0,0,0-.68-.27,1.77,1.77,0,0,0,.36.64c.09.13.21.26.33.4l.09.09h0l0,0-.26.19a5.5,5.5,0,0,0-.42.38,2.07,2.07,0,0,0-.49.63,1.89,1.89,0,0,0,.77-.2c.16-.07.34-.15.52-.25l.27-.16Z"/><polygon class="cls-1" points="226.89 384.3 242.37 379.61 248.65 381.35 248.9 393.44 203.87 409.61 201.42 404.24 221.93 393.42 226.89 384.3"/><path class="cls-13" d="M222.74,393.16c-6.11,3.06-11.23,5.79-13.11,7,2.07-.8,7.33-3.26,13.44-6.32s11.22-5.79,13.11-7C234.11,387.64,228.85,390.1,222.74,393.16Z"/><polygon class="cls-1" points="201.42 404.24 197.52 407.23 195.84 420.4 203.87 409.61 201.42 404.24"/><polygon class="cls-1" points="192.87 384.55 177.39 379.86 171.11 381.6 170.86 393.69 215.89 409.86 218.34 404.49 197.83 393.67 192.87 384.55"/><path class="cls-13" d="M200.79,396.11c8,4,14.86,7.27,17.54,8.38-2.49-1.49-9.22-5-17.21-9s-14.85-7.26-17.54-8.37C186.08,388.57,192.8,392.11,200.79,396.11Z"/><polygon class="cls-1" points="218.34 404.49 222.24 407.48 223.91 420.65 215.89 409.86 218.34 404.49"/><path class="cls-8" d="M202.8,347.65s2.39,10.57,5.27,10.57,5.36-10.76,5.36-10.76Z"/><path class="cls-14" d="M193.67,362.39a22.32,22.32,0,0,0-1.25,5.37,22.8,22.8,0,0,0,2.17-5.06,21.83,21.83,0,0,0,1.25-5.37A22.58,22.58,0,0,0,193.67,362.39Z"/><polygon class="cls-15" points="226.9 393.6 189.84 393.6 186.04 368.29 229.52 365.5 226.9 393.6"/><path class="cls-1" d="M210.85,379.86a3.07,3.07,0,1,1-3.07-3.07A3.07,3.07,0,0,1,210.85,379.86Z"/><path class="cls-8" d="M247.51,325.28c7.6-6.11,5-.69,5-.69s5.73.39,5.63,1.62c-.15,1.69-7.88,2.18-7.88,2.18Z"/><path class="cls-9" d="M360.79,258.24l2-8,6.41-1.34-2.5,2.67,3.5.33-2.83,1.66L378,266.92l-11,8.6S359.46,263.58,360.79,258.24Z"/><path class="cls-8" d="M331.67,240.56l-1.3-3.31-3.4,1.26,1,4.83,3.29-.29c3.62-2.86.44-2.49.44-2.49"/><polygon class="cls-7" points="347.51 320.05 340.31 404.46 345.24 404.46 362.01 334.52 376.23 404.46 381.17 404.46 377.02 320.05 347.51 320.05"/><polygon class="cls-8" points="373.76 280.35 383.72 272.64 392.5 243.05 395.8 243.34 392.33 279.57 376.01 291.59 377.02 320.05 347.51 320.05 347.35 292.25 329.31 279.28 327.94 243.34 331.23 243.05 338.34 272.56 349.29 280.88 373.76 280.35"/><polygon class="cls-9" points="347.35 292.25 342.01 288.42 344.32 277.11 349.29 280.88 349.29 280.88 373.76 280.35 373.76 280.35 378.02 277.05 382.94 286.49 376.01 291.59 376.01 291.59 377.02 320.05 347.51 320.05 347.35 292.25 347.35 292.25"/><path class="cls-8" d="M392.06,240.56l1.3-3.31,3.4,1.26-1,4.83-3.29-.29c-3.62-2.86-.44-2.49-.44-2.49"/><path class="cls-8" d="M365,280.79l-.4-5.27-5.23.09.42,5.59S362.77,293.25,365,280.79Z"/><polygon class="cls-10" points="359.51 278 364.89 280 364.56 275.52 359.33 275.61 359.51 278"/><path class="cls-8" d="M364.52,279.08l-10.16-6.24,2.46-6-1.9-1.17,7.09-9,7.17,8-2.44,3.68,1.14.7s2.46-2.34,3.21-.63c.49,1.11-1.11,3.49-2.71,3.68l-1.82,4.46Z"/><path class="cls-16" d="M340.31,404.46h4.93v4.26H330.77S332,404.89,340.31,404.46Z"/><path class="cls-16" d="M381.17,404.46h-4.94v4.26h14.48S389.47,404.89,381.17,404.46Z"/><rect class="cls-9" x="185.68" y="60.18" width="124.63" height="27.88" rx="4"/><rect class="cls-6" x="185.68" y="264.48" width="124.63" height="40.5" rx="4"/><rect class="cls-1" x="185.68" y="133.36" width="124.63" height="4.12" rx="2"/><rect class="cls-1" x="185.68" y="121.53" width="124.63" height="4.12" rx="2"/><rect class="cls-1" x="185.68" y="109.69" width="124.63" height="4.12" rx="2"/><rect class="cls-1" x="185.68" y="97.86" width="124.63" height="4.12" rx="2"/><rect class="cls-1" x="369.74" y="214.44" width="28.92" height="25.86" rx="4"/><rect class="cls-17" x="322.32" y="214.44" width="28.92" height="25.86" rx="4"/><rect class="cls-17" x="369.74" y="180.36" width="28.92" height="25.86" rx="4"/><rect class="cls-1" x="322.32" y="180.36" width="28.92" height="25.86" rx="4"/><rect class="cls-1" x="369.74" y="146.29" width="28.92" height="25.87" rx="4"/><rect class="cls-17" x="321.32" y="146.29" width="28.92" height="25.87"/><rect class="cls-18" x="257.25" y="225.98" width="28.92" height="25.86" rx="4"/><rect class="cls-18" x="209.83" y="225.98" width="28.92" height="25.86" rx="4"/><rect class="cls-18" x="257.25" y="191.9" width="28.92" height="25.86" rx="4"/><rect class="cls-18" x="209.83" y="191.9" width="28.92" height="25.86" rx="4"/><rect class="cls-18" x="257.25" y="157.83" width="28.92" height="25.87" rx="4"/><rect class="cls-18" x="209.83" y="157.83" width="28.92" height="25.87" rx="4"/><path class="cls-1" d="M197.69,172.15a3.1,3.1,0,1,1-3.09-3.09A3.09,3.09,0,0,1,197.69,172.15Z"/><path class="cls-1" d="M197.69,204.84a3.1,3.1,0,1,1-3.09-3.1A3.09,3.09,0,0,1,197.69,204.84Z"/><path class="cls-1" d="M197.69,238.91a3.1,3.1,0,1,1-3.09-3.09A3.09,3.09,0,0,1,197.69,238.91Z"/></g></g></svg>